<svg width="140" height="100" viewBox="0 0 140 100" fill="none" xmlns="http://www.w3.org/2000/svg">
<path d="M103.976 13.2833C103.974 12.4599 103.309 11.7949 102.485 11.7936L21.0776 11.6665C20.2442 11.6652 19.5665 12.3432 19.5684 13.1763L19.6998 69.7861C19.7017 70.6095 20.3675 71.2745 21.1912 71.2758L102.598 71.4028C103.432 71.4041 104.11 70.7262 104.108 69.8931L103.976 13.2833Z" fill="#F4C9AB"/>
<g filter="url(#filter0_i)">
<path d="M63.0345 17.6631C63.6572 17.547 64.1329 17.0053 64.143 16.3476C64.1439 16.2881 64.141 16.2294 64.1345 16.1718L65.1453 16.1873C65.137 16.2447 65.1322 16.3032 65.1313 16.3627C65.1198 17.1134 65.719 17.7313 66.4697 17.7428C67.2203 17.7543 67.8382 17.155 67.8497 16.4044C67.8506 16.3449 67.8476 16.2862 67.8411 16.2286L68.8519 16.2441C68.8436 16.3015 68.8389 16.36 68.838 16.4195C68.8265 17.1702 69.4257 17.7881 70.1763 17.7996C70.9269 17.8111 71.5448 17.2118 71.5563 16.4612C71.5572 16.4017 71.5543 16.343 71.5477 16.2854L72.5585 16.3009C72.5503 16.3583 72.5455 16.4168 72.5446 16.4763C72.5331 17.227 73.1323 17.8449 73.8829 17.8564C74.6336 17.8679 75.2514 17.2687 75.2629 16.518C75.2638 16.4585 75.2609 16.3999 75.2544 16.3422L76.2652 16.3577C76.2569 16.4151 76.2521 16.4736 76.2512 16.5331C76.2397 17.2838 76.8389 17.9017 77.5896 17.9132C78.3402 17.9247 78.9581 17.3255 78.9696 16.5748C78.9705 16.5153 78.9675 16.4567 78.961 16.399L79.9718 16.4145C79.9635 16.4719 79.9588 16.5305 79.9579 16.5899C79.9464 17.3406 80.5456 17.9585 81.2962 17.97C82.0468 17.9815 82.6647 17.3823 82.6762 16.6316C82.6771 16.5721 82.6742 16.5135 82.6676 16.4558L83.6784 16.4713C83.6702 16.5287 83.6654 16.5873 83.6645 16.6468C83.653 17.3974 84.2522 18.0153 85.0028 18.0269C85.7535 18.0384 86.3713 17.4391 86.3828 16.6884C86.3837 16.6289 86.3808 16.5703 86.3743 16.5126L87.3851 16.5281C87.3768 16.5856 87.3721 16.6441 87.3711 16.7036C87.3596 17.4542 87.9588 18.0722 88.7095 18.0837C89.4601 18.0952 90.078 17.4959 90.0895 16.7452C90.0904 16.6857 90.0874 16.6271 90.0809 16.5695L91.0917 16.585C91.0834 16.6424 91.0787 16.7009 91.0778 16.7604C91.0663 17.511 91.6655 18.129 92.4161 18.1405C93.1667 18.152 93.7846 17.5527 93.7961 16.802C93.797 16.7426 93.7941 16.6839 93.7875 16.6263L94.7984 16.6418C94.7901 16.6992 94.7853 16.7577 94.7844 16.8172C94.7729 17.5679 95.3721 18.1858 96.1227 18.1973C96.3763 18.2012 96.6147 18.1354 96.8197 18.0176L96.798 19.4307C96.7119 19.4122 96.6227 19.4018 96.5313 19.4004C95.7806 19.3889 95.1628 19.9882 95.1513 20.7388C95.1398 21.4895 95.739 22.1073 96.4896 22.1188C96.5811 22.1202 96.6705 22.1126 96.7572 22.0967L96.7412 23.1374C96.6551 23.1188 96.5659 23.1084 96.4745 23.107C95.7238 23.0955 95.106 23.6948 95.0945 24.4455C95.0829 25.1961 95.6822 25.8139 96.4328 25.8254C96.5242 25.8268 96.6137 25.8192 96.7004 25.8033L96.6844 26.844C96.5983 26.8255 96.5091 26.8151 96.4176 26.8137C95.667 26.8022 95.0491 27.4014 95.0376 28.1521C95.0261 28.9028 95.6253 29.5206 96.376 29.5321C96.4674 29.5335 96.5569 29.5258 96.6436 29.51L96.6276 30.5506C96.5415 30.5321 96.4523 30.5217 96.3608 30.5203C95.6102 30.5088 94.9923 31.1081 94.9808 31.8587C94.9693 32.6094 95.5685 33.2272 96.3192 33.2387C96.4106 33.2401 96.5001 33.2325 96.5868 33.2166L96.5708 34.2573C96.4847 34.2387 96.3955 34.2284 96.304 34.227C95.5534 34.2154 94.9355 34.8147 94.924 35.5654C94.9125 36.3161 95.5117 36.9338 96.2624 36.9453C96.3538 36.9468 96.4433 36.9391 96.5299 36.9232L96.514 37.9639C96.4279 37.9454 96.3387 37.935 96.2472 37.9336C95.4966 37.9221 94.8787 38.5214 94.8672 39.272C94.8557 40.0227 95.4549 40.6405 96.2055 40.652C96.297 40.6534 96.3865 40.6458 96.4731 40.6299L96.4572 41.6705C96.371 41.652 96.2818 41.6416 96.1904 41.6402C95.4398 41.6287 94.8219 42.228 94.8104 42.9787C94.7989 43.7293 95.3981 44.3471 96.1487 44.3586C96.2402 44.36 96.3297 44.3524 96.4163 44.3365L96.4004 45.3772C96.3142 45.3586 96.225 45.3483 96.1336 45.3469C95.383 45.3353 94.7651 45.9346 94.7536 46.6853C94.7421 47.436 95.3413 48.0537 96.0919 48.0653C96.1834 48.0667 96.2728 48.059 96.3595 48.0431L96.3436 49.0838C96.2574 49.0653 96.1682 49.0549 96.0768 49.0535C95.3261 49.042 94.7083 49.6413 94.6968 50.3919C94.6853 51.1426 95.2845 51.7604 96.0351 51.7719C96.1266 51.7733 96.216 51.7657 96.3027 51.7498L96.2842 52.9542C96.0829 52.8301 95.8467 52.7571 95.5931 52.7532C94.8425 52.7417 94.2246 53.3408 94.2131 54.0915C94.211 54.2293 94.2294 54.3625 94.2656 54.4883L93.1602 54.4714C93.2002 54.3467 93.2227 54.2141 93.2248 54.0763C93.2363 53.3257 92.6371 52.7079 91.8865 52.6964C91.1358 52.6849 90.518 53.284 90.5065 54.0347C90.5044 54.1724 90.5228 54.3057 90.559 54.4315L89.4535 54.4146C89.4935 54.2899 89.5161 54.1573 89.5182 54.0195C89.5297 53.2689 88.9305 52.6511 88.1798 52.6396C87.4292 52.6281 86.8113 53.2272 86.7998 53.9779C86.7977 54.1156 86.8162 54.2489 86.8523 54.3747L85.7469 54.3578C85.7869 54.2331 85.8094 54.1005 85.8115 53.9627C85.823 53.2121 85.2238 52.5943 84.4732 52.5828C83.7226 52.5713 83.1047 53.1704 83.0932 53.9211C83.0911 54.0588 83.1095 54.1921 83.1457 54.3179L82.0403 54.301C82.0803 54.1763 82.1028 54.0437 82.1049 53.9059C82.1164 53.1552 81.5172 52.5375 80.7666 52.5259C80.0159 52.5144 79.3981 53.1136 79.3866 53.8642C79.3845 54.002 79.4029 54.1353 79.4391 54.2611L78.3336 54.2441C78.3736 54.1195 78.3962 53.9869 78.3983 53.8491C78.4098 53.0984 77.8106 52.4806 77.0599 52.4691C76.3093 52.4576 75.6914 53.0568 75.6799 53.8074C75.6778 53.9452 75.6963 54.0785 75.7324 54.2043L74.627 54.1873C74.667 54.0627 74.6895 53.9301 74.6916 53.7923C74.7031 53.0416 74.1039 52.4238 73.3533 52.4123C72.6027 52.4008 71.9848 53 71.9733 53.7506C71.9712 53.8884 71.9896 54.0216 72.0258 54.1475L70.9203 54.1305C70.9604 54.0059 70.9829 53.8732 70.985 53.7355C70.9965 52.9848 70.3973 52.367 69.6467 52.3555C68.896 52.344 68.2782 52.9431 68.2667 53.6938C68.2645 53.8316 68.283 53.9648 68.3192 54.0907L67.2137 54.0737C67.2537 53.9491 67.2762 53.8164 67.2784 53.6787C67.2899 52.928 66.6907 52.3102 65.94 52.2987C65.1894 52.2872 64.5715 52.8863 64.56 53.637C64.5579 53.7748 64.5764 53.908 64.6125 54.0338L63.5071 54.0169C63.5471 53.8922 63.5696 53.7596 63.5717 53.6219C63.5818 52.9641 63.1229 52.4082 62.504 52.273L62.52 51.2316C63.1445 51.1169 63.6221 50.5746 63.6322 49.9155C63.6423 49.2564 63.1815 48.6996 62.5609 48.5659L62.5768 47.5249C63.2013 47.4103 63.6789 46.868 63.689 46.2089C63.6991 45.5498 63.2384 44.993 62.6177 44.8593L62.6336 43.8183C63.2581 43.7037 63.7357 43.1613 63.7458 42.5023C63.7559 41.8432 63.2952 41.2864 62.6745 41.1526L62.6904 40.1117C63.3149 39.997 63.7925 39.4547 63.8026 38.7956C63.8127 38.1365 63.352 37.5797 62.7313 37.446L62.7472 36.405C63.3717 36.2904 63.8493 35.7481 63.8594 35.089C63.8695 34.4299 63.4088 33.8731 62.7881 33.7393L62.8041 32.6984C63.4286 32.5838 63.9061 32.0414 63.9162 31.3824C63.9263 30.7233 63.4656 30.1665 62.8449 30.0327L62.8609 28.9918C63.4854 28.8771 63.963 28.3348 63.9731 27.6757C63.9832 27.0166 63.5224 26.4598 62.9017 26.3261L62.9177 25.2851C63.5422 25.1705 64.0198 24.6282 64.0299 23.9691C64.04 23.31 63.5792 22.7532 62.9585 22.6194L62.9745 21.5785C63.599 21.4638 64.0766 20.9215 64.0867 20.2625C64.0968 19.6034 63.636 19.0466 63.0154 18.9128L63.0345 17.6631Z" fill="#F6F7F9"/>
</g>
<rect x="65.1943" y="19.1426" width="28.9404" height="31.9981" transform="rotate(0.878105 65.1943 19.1426)" fill="#EDBDBD"/>
<path fill-rule="evenodd" clip-rule="evenodd" d="M84.8847 29.7157C84.2442 29.5668 83.6042 29.9654 83.4553 30.606C83.3064 31.2465 82.6664 31.6451 82.0258 31.4962C81.3852 31.3473 80.9866 30.7073 81.1355 30.0668C81.5822 28.145 83.5022 26.9492 85.4239 27.3959C86.4546 27.6355 87.2773 28.3006 87.7477 29.1583C88.064 29.7349 87.8529 30.4588 87.2763 30.775C86.6997 31.0913 85.9759 30.8802 85.6596 30.3036C85.5012 30.0147 85.2282 29.7955 84.8847 29.7157ZM73.4233 31.8322C72.7675 31.7826 72.1957 32.274 72.1461 32.9298C72.0965 33.5856 71.5247 34.077 70.8689 34.0275C70.2132 33.9779 69.7217 33.4061 69.7713 32.7503C69.92 30.7829 71.6354 29.3086 73.6028 29.4574C74.6579 29.5371 75.5723 30.0691 76.1679 30.8451C76.5684 31.3669 76.47 32.1144 75.9483 32.5148C75.4266 32.9152 74.6791 32.8169 74.2787 32.2952C74.0781 32.0338 73.7748 31.8587 73.4233 31.8322Z" fill="#D88585"/>
<path d="M80.9144 42.857C84.5124 42.1786 87.0571 38.9 87.6503 36.0785C87.8079 35.3293 86.9456 35.0034 86.4013 35.4999C85.1775 36.6164 83.0908 38.0712 80.1177 38.6317C77.1447 39.1923 74.6715 38.5972 73.1251 38.003C72.4374 37.7388 71.753 38.3563 72.1725 38.9967C73.7525 41.4085 77.3164 43.5354 80.9144 42.857Z" fill="#D88585"/>
<path d="M100.986 71.2638L102.376 71.3444C103.238 71.3944 103.964 70.7087 103.962 69.8456L103.868 13.3247C103.867 12.5304 103.247 11.8744 102.454 11.8286L100.898 11.7388L100.986 71.2638Z" fill="#29545C" fill-opacity="0.2" style="mix-blend-mode:multiply"/>
<g filter="url(#filter1_di)">
<circle cx="100.853" cy="62.2087" r="21.5563" fill="#F7CC7A"/>
</g>
<path d="M103.202 68.2885C104.952 68.2885 106.427 67.5968 107.627 66.2135L110.202 68.6135C109.368 69.6301 108.335 70.4051 107.102 70.9385C105.885 71.4718 104.518 71.7385 103.002 71.7385C101.552 71.7385 100.202 71.4801 98.9516 70.9635C97.7182 70.4468 96.6682 69.7135 95.8016 68.7635C94.9349 67.8135 94.3099 66.7135 93.9266 65.4635H91.1016V63.3635H93.5516C93.5349 63.2135 93.5266 62.9885 93.5266 62.6885C93.5266 62.3885 93.5349 62.1635 93.5516 62.0135H91.1016V59.9135H93.9266C94.3099 58.6635 94.9349 57.5635 95.8016 56.6135C96.6682 55.6635 97.7182 54.9301 98.9516 54.4135C100.202 53.8968 101.552 53.6385 103.002 53.6385C104.518 53.6385 105.885 53.9051 107.102 54.4385C108.335 54.9718 109.368 55.7385 110.202 56.7385L107.627 59.1385C106.41 57.7718 104.935 57.0885 103.202 57.0885C102.102 57.0885 101.118 57.3385 100.252 57.8385C99.3849 58.3385 98.7182 59.0301 98.2516 59.9135H104.577V62.0135H97.6266C97.6099 62.1635 97.6016 62.3885 97.6016 62.6885C97.6016 62.9885 97.6099 63.2135 97.6266 63.3635H104.577V65.4635H98.2516C98.7182 66.3468 99.3849 67.0385 100.252 67.5385C101.118 68.0385 102.102 68.2885 103.202 68.2885Z" fill="#D09D1B"/>
<defs>
<filter id="filter0_i" x="62.5039" y="16.1719" width="34.3157" height="38.3166" filterUnits="userSpaceOnUse" color-interpolation-filters="sRGB">
<feFlood flood-opacity="0" result="BackgroundImageFix"/>
<feBlend mode="normal" in="SourceGraphic" in2="BackgroundImageFix" result="shape"/>
<feColorMatrix in="SourceAlpha" type="matrix" values="0 0 0 0 0 0 0 0 0 0 0 0 0 0 0 0 0 0 127 0" result="hardAlpha"/>
<feOffset dx="1" dy="1"/>
<feComposite in2="hardAlpha" operator="arithmetic" k2="-1" k3="1"/>
<feColorMatrix type="matrix" values="0 0 0 0 1 0 0 0 0 1 0 0 0 0 1 0 0 0 1 0"/>
<feBlend mode="normal" in2="shape" result="effect1_innerShadow"/>
</filter>
<filter id="filter1_di" x="79.2969" y="40.6523" width="43.1126" height="47.1126" filterUnits="userSpaceOnUse" color-interpolation-filters="sRGB">
<feFlood flood-opacity="0" result="BackgroundImageFix"/>
<feColorMatrix in="SourceAlpha" type="matrix" values="0 0 0 0 0 0 0 0 0 0 0 0 0 0 0 0 0 0 127 0"/>
<feOffset dy="4"/>
<feColorMatrix type="matrix" values="0 0 0 0 0.815686 0 0 0 0 0.615686 0 0 0 0 0.105882 0 0 0 1 0"/>
<feBlend mode="normal" in2="BackgroundImageFix" result="effect1_dropShadow"/>
<feBlend mode="normal" in="SourceGraphic" in2="effect1_dropShadow" result="shape"/>
<feColorMatrix in="SourceAlpha" type="matrix" values="0 0 0 0 0 0 0 0 0 0 0 0 0 0 0 0 0 0 127 0" result="hardAlpha"/>
<feOffset dx="1" dy="1"/>
<feComposite in2="hardAlpha" operator="arithmetic" k2="-1" k3="1"/>
<feColorMatrix type="matrix" values="0 0 0 0 1 0 0 0 0 0.968467 0 0 0 0 0.908333 0 0 0 1 0"/>
<feBlend mode="normal" in2="shape" result="effect2_innerShadow"/>
</filter>
</defs>
</svg>
