<svg xmlns="http://www.w3.org/2000/svg" width="145.341" height="24.675" viewBox="0 0 145.341 24.675">
  <g id="Group_14572" data-name="Group 14572" transform="translate(-52 -10567)">
    <path id="path3789" d="M40.134.5c-4.321,0-8.182,2.239-8.182,6.377,0,4.745,6.848,5.073,6.848,7.457,0,1-1.15,1.9-3.115,1.9a10.343,10.343,0,0,1-4.872-1.255l-.892,4.175a15.207,15.207,0,0,0,5.588,1.06c4.724,0,8.441-2.349,8.441-6.558,0-5.014-6.876-5.332-6.876-7.545,0-.786.944-1.648,2.9-1.648a9.868,9.868,0,0,1,4.014.913l.873-4.033A13.06,13.06,0,0,0,40.134.5ZM.6.8l-.1.609a20.321,20.321,0,0,1,3.455,1c2.108.761,2.258,1.2,2.613,2.58L10.437,19.9h5.186L23.611.8H18.438L13.3,13.789,11.209,2.783A2.264,2.264,0,0,0,8.853.8H.6ZM25.692.8,21.633,19.9h4.934L30.612.8h-4.92ZM53.209.8a2.328,2.328,0,0,0-2.283,1.75L43.7,19.9h5.174l1-2.891h6.3l.609,2.891h4.565L57.368.8H53.209Zm.673,5.16,1.534,7.166H51.307Z" transform="translate(135.99 10568.5)" fill="#1434cb"/>
    <g id="mastercard" transform="translate(52 10567)">
      <g id="Group_14571" data-name="Group 14571" transform="translate(0 0)">
        <g id="Group_14567" data-name="Group 14567" transform="translate(1.614 20.886)">
          <path id="Path_5048" data-name="Path 5048" d="M-156.226-18.32v.064h.059a.062.062,0,0,0,.032-.008.028.028,0,0,0,.012-.024.027.027,0,0,0-.012-.024.057.057,0,0,0-.032-.008Zm.06-.045a.11.11,0,0,1,.071.021.068.068,0,0,1,.025.056.064.064,0,0,1-.02.049.1.1,0,0,1-.057.024l.079.09h-.061l-.073-.09h-.024v.09h-.051v-.24Zm-.016.323a.19.19,0,0,0,.078-.016.2.2,0,0,0,.064-.043.2.2,0,0,0,.043-.064.205.205,0,0,0,.016-.079.205.205,0,0,0-.016-.079.207.207,0,0,0-.043-.064.2.2,0,0,0-.064-.043.2.2,0,0,0-.078-.015.208.208,0,0,0-.079.015.2.2,0,0,0-.065.043.2.2,0,0,0-.042.064.194.194,0,0,0-.016.079.194.194,0,0,0,.016.079.189.189,0,0,0,.042.064.2.2,0,0,0,.065.043.2.2,0,0,0,.079.016m0-.461a.259.259,0,0,1,.1.021.261.261,0,0,1,.084.055.254.254,0,0,1,.056.082.247.247,0,0,1,.021.1.247.247,0,0,1-.021.1.268.268,0,0,1-.056.082.283.283,0,0,1-.084.055.259.259,0,0,1-.1.021.263.263,0,0,1-.1-.021.271.271,0,0,1-.084-.055.268.268,0,0,1-.056-.082.247.247,0,0,1-.021-.1.247.247,0,0,1,.021-.1.254.254,0,0,1,.056-.082.251.251,0,0,1,.084-.055.263.263,0,0,1,.1-.021m-24.285-.924a.781.781,0,0,1,.79-.833.78.78,0,0,1,.784.833.78.78,0,0,1-.784.833.781.781,0,0,1-.79-.833m2.107,0v-1.3h-.566v.316a.987.987,0,0,0-.822-.381,1.3,1.3,0,0,0-1.3,1.367,1.3,1.3,0,0,0,1.3,1.367.987.987,0,0,0,.822-.381v.316h.566Zm19.126,0a.781.781,0,0,1,.79-.833.78.78,0,0,1,.784.833.78.78,0,0,1-.784.833.781.781,0,0,1-.79-.833m2.108,0v-2.347h-.567v1.361a.987.987,0,0,0-.822-.381,1.3,1.3,0,0,0-1.3,1.367,1.3,1.3,0,0,0,1.3,1.367.987.987,0,0,0,.822-.381v.316h.567Zm-14.209-.86a.647.647,0,0,1,.659.631h-1.351a.67.67,0,0,1,.692-.631m.011-.507a1.272,1.272,0,0,0-1.3,1.367,1.284,1.284,0,0,0,1.335,1.367,1.582,1.582,0,0,0,1.067-.365l-.277-.419a1.245,1.245,0,0,1-.757.272.723.723,0,0,1-.779-.638h1.933c.006-.07.011-.141.011-.218a1.248,1.248,0,0,0-1.236-1.367m6.834,1.367a.781.781,0,0,1,.79-.833.78.78,0,0,1,.784.833.78.78,0,0,1-.784.833.781.781,0,0,1-.79-.833m2.107,0v-1.3h-.566v.316a.988.988,0,0,0-.822-.381,1.3,1.3,0,0,0-1.3,1.367,1.3,1.3,0,0,0,1.3,1.367.988.988,0,0,0,.822-.381v.316h.566Zm-5.3,0A1.315,1.315,0,0,0-166.3-18.06a1.363,1.363,0,0,0,.936-.31l-.272-.458a1.144,1.144,0,0,1-.681.234.778.778,0,0,1-.784-.833.778.778,0,0,1,.784-.833,1.144,1.144,0,0,1,.681.234l.272-.458a1.363,1.363,0,0,0-.936-.31,1.315,1.315,0,0,0-1.389,1.367m7.3-1.367a.768.768,0,0,0-.686.381v-.316h-.561v2.6h.567v-1.459c0-.431.185-.67.555-.67a.918.918,0,0,1,.354.065l.175-.534a1.205,1.205,0,0,0-.4-.071m-15.172.272a1.947,1.947,0,0,0-1.062-.272c-.659,0-1.084.316-1.084.833,0,.424.316.686.9.768l.267.038c.31.044.457.125.457.272,0,.2-.207.316-.593.316a1.386,1.386,0,0,1-.866-.272l-.267.441a1.878,1.878,0,0,0,1.127.338c.752,0,1.187-.354,1.187-.85,0-.458-.343-.7-.909-.779l-.267-.039c-.245-.032-.441-.081-.441-.256,0-.191.185-.3.5-.3a1.679,1.679,0,0,1,.812.223Zm7.3-.272a.767.767,0,0,0-.686.381v-.316h-.561v2.6h.566v-1.459c0-.431.185-.67.555-.67a.918.918,0,0,1,.354.065l.175-.534a1.205,1.205,0,0,0-.4-.071m-4.83.065h-.926v-.79h-.572v.79h-.528v.517h.528v1.187c0,.6.234.964.9.964a1.328,1.328,0,0,0,.708-.2l-.163-.485a1.048,1.048,0,0,1-.5.147c-.283,0-.375-.175-.375-.436v-1.176h.926Zm-8.463,2.6v-1.634a.969.969,0,0,0-1.024-1.035,1.008,1.008,0,0,0-.915.463.955.955,0,0,0-.86-.463.861.861,0,0,0-.762.386v-.321h-.567v2.6h.572v-1.443a.609.609,0,0,1,.638-.692c.376,0,.566.245.566.686v1.449h.572v-1.443a.614.614,0,0,1,.637-.692c.386,0,.572.245.572.686v1.449Z" transform="translate(185.679 21.774)" fill="#231f20"/>
        </g>
        <g id="Group_14568" data-name="Group 14568" transform="translate(30.589 15.498)">
          <path id="Path_5049" data-name="Path 5049" d="M-4.381-2.017V-2.4h-.1l-.115.261L-4.709-2.4h-.1v.38h.07V-2.3l.107.247h.073l.107-.248v.287Zm-.629,0v-.315h.127V-2.4h-.324v.064h.127v.315Z" transform="translate(5.207 2.397)" fill="#f79410"/>
        </g>
        <path id="Path_5050" data-name="Path 5050" d="M3351.582,2162.988H3343v-15.416h8.578Z" transform="translate(-3331.436 -2145.474)" fill="#ff5f00"/>
        <g id="Group_14569" data-name="Group 14569" transform="translate(0 0)">
          <path id="Path_5051" data-name="Path 5051" d="M-64.275-52a9.788,9.788,0,0,1,3.744-7.708,9.761,9.761,0,0,0-6.059-2.1,9.8,9.8,0,0,0-9.8,9.8,9.8,9.8,0,0,0,9.8,9.8,9.761,9.761,0,0,0,6.059-2.1A9.788,9.788,0,0,1-64.275-52" transform="translate(76.392 61.809)" fill="#eb001b"/>
        </g>
        <g id="Group_14570" data-name="Group 14570" transform="translate(15.852 0)">
          <path id="Path_5052" data-name="Path 5052" d="M-84.139-52a9.8,9.8,0,0,1-9.8,9.8A9.764,9.764,0,0,1-100-44.3,9.786,9.786,0,0,0-96.256-52,9.786,9.786,0,0,0-100-59.713a9.764,9.764,0,0,1,6.059-2.1,9.8,9.8,0,0,1,9.8,9.8" transform="translate(100.001 61.809)" fill="#f79e1b"/>
        </g>
      </g>
    </g>
    <g id="maestro" transform="translate(94.205 10567)">
      <path id="Path_5053" data-name="Path 5053" d="M101.986,32.364h-8.6V16.913h8.6Z" transform="translate(-81.79 -14.813)" fill="#6c6bbd"/>
      <path id="Path_5054" data-name="Path 5054" d="M12.145-148.407a9.81,9.81,0,0,1,3.753-7.725,9.783,9.783,0,0,0-6.072-2.1A9.826,9.826,0,0,0,0-148.407a9.826,9.826,0,0,0,9.825,9.826,9.783,9.783,0,0,0,6.072-2.1,9.81,9.81,0,0,1-3.753-7.725" transform="translate(0 158.233)" fill="#d32011"/>
      <path id="Path_5055" data-name="Path 5055" d="M143.9-148.407a9.826,9.826,0,0,1-9.825,9.826,9.786,9.786,0,0,1-6.073-2.1,9.808,9.808,0,0,0,3.753-7.725A9.808,9.808,0,0,0,128-156.132a9.786,9.786,0,0,1,6.073-2.1,9.826,9.826,0,0,1,9.825,9.826" transform="translate(-112.1 158.233)" fill="#0099df"/>
      <path id="Path_5056" data-name="Path 5056" d="M59.8-197.943a1.211,1.211,0,0,1,.4.071l-.175.535a.92.92,0,0,0-.355-.066c-.371,0-.557.24-.557.671v1.463H58.55v-2.609h.562v.317a.77.77,0,0,1,.688-.382Zm-2.1.584h-.928v1.179c0,.262.092.437.377.437a1.046,1.046,0,0,0,.5-.147l.164.485a1.331,1.331,0,0,1-.709.2c-.672,0-.906-.36-.906-.966v-1.189h-.53v-.519h.53v-.792h.573v.792H57.7v.519Zm-7.265.557a.672.672,0,0,1,.693-.633.648.648,0,0,1,.66.633Zm1.944.229a1.251,1.251,0,0,0-1.239-1.37,1.275,1.275,0,0,0-1.3,1.37A1.287,1.287,0,0,0,51.18-195.2a1.585,1.585,0,0,0,1.07-.365l-.279-.42a1.241,1.241,0,0,1-.758.273.725.725,0,0,1-.78-.638H52.37c.006-.071.011-.142.011-.218Zm2.494-.638a1.673,1.673,0,0,0-.813-.224c-.311,0-.5.115-.5.306,0,.174.2.224.442.256l.267.038c.568.082.911.322.911.781,0,.5-.437.852-1.189.852a1.882,1.882,0,0,1-1.13-.339l.267-.442a1.391,1.391,0,0,0,.868.273c.387,0,.595-.114.595-.317,0-.147-.147-.229-.459-.272l-.267-.038c-.584-.082-.9-.344-.9-.77,0-.519.426-.835,1.086-.835a1.95,1.95,0,0,1,1.064.273l-.246.459Zm7-.192a.859.859,0,0,0-.325.061.781.781,0,0,0-.26.172.8.8,0,0,0-.172.266.9.9,0,0,0-.062.34.9.9,0,0,0,.062.34.8.8,0,0,0,.172.266.781.781,0,0,0,.26.172.848.848,0,0,0,.325.061.846.846,0,0,0,.325-.061.781.781,0,0,0,.261-.172.8.8,0,0,0,.174-.266.9.9,0,0,0,.062-.34.9.9,0,0,0-.062-.34.8.8,0,0,0-.174-.266.78.78,0,0,0-.261-.172.857.857,0,0,0-.325-.061Zm0-.539a1.469,1.469,0,0,1,.562.106,1.365,1.365,0,0,1,.447.29,1.327,1.327,0,0,1,.3.436,1.388,1.388,0,0,1,.107.547,1.388,1.388,0,0,1-.107.547,1.329,1.329,0,0,1-.3.437,1.375,1.375,0,0,1-.447.29,1.481,1.481,0,0,1-.562.1,1.481,1.481,0,0,1-.562-.1,1.36,1.36,0,0,1-.445-.29,1.345,1.345,0,0,1-.294-.437,1.388,1.388,0,0,1-.107-.547,1.388,1.388,0,0,1,.107-.547,1.343,1.343,0,0,1,.294-.436,1.35,1.35,0,0,1,.445-.29,1.469,1.469,0,0,1,.562-.106Zm-14.753,1.37a.783.783,0,0,1,.792-.835.782.782,0,0,1,.786.835.782.782,0,0,1-.786.835.782.782,0,0,1-.792-.835Zm2.112,0v-1.3h-.567v.317a.99.99,0,0,0-.824-.382,1.307,1.307,0,0,0-1.3,1.37,1.307,1.307,0,0,0,1.3,1.37.99.99,0,0,0,.824-.382v.317h.567Zm-3.2,1.3v-1.637a.971.971,0,0,0-1.026-1.037,1.009,1.009,0,0,0-.917.464.959.959,0,0,0-.863-.464.863.863,0,0,0-.764.387v-.322H41.9v2.609h.573v-1.446a.61.61,0,0,1,.638-.693c.377,0,.568.246.568.688v1.452h.573v-1.446a.616.616,0,0,1,.638-.693c.388,0,.573.246.573.688v1.452Z" transform="translate(-36.695 219.86)" fill="#110f0d"/>
    </g>
  </g>
</svg>
