<svg width="16" height="16" viewBox="0 0 16 16" fill="none" xmlns="http://www.w3.org/2000/svg">
<path d="M8 0C12.3342 0 15.8645 3.44849 15.9962 7.75086L16 8C16 11.8896 13.2228 15.1317 9.54354 15.8512L9.54389 10.6127H11.6078L11.9174 8.12404H9.54389V6.53422C9.54389 5.81352 9.736 5.32206 10.7315 5.32206H12V3.0973C11.7809 3.06762 11.0268 3 10.1504 3C8.32139 3 7.06872 4.15938 7.06872 6.29014V8.12569H5V10.6143H7.06872L7.06808 15.9463C3.17022 15.4939 0.125905 12.2386 0.00380707 8.24914L0 8C0 3.66575 3.44849 0.135482 7.75086 0.00380707L8 0Z" fill="#212121"/>
</svg>