<svg width="16" height="16" viewBox="0 0 16 16" fill="none" xmlns="http://www.w3.org/2000/svg">
<path d="M9.13182 0C10.3099 0.0037368 10.6206 0.0157974 11.294 0.0454855C12.147 0.08533 12.7282 0.221269 13.2367 0.418148C13.764 0.624402 14.2093 0.896282 14.6545 1.3416C15.0998 1.78458 15.374 2.23224 15.5779 2.75491C15.777 3.26586 15.9106 3.84712 15.9505 4.69791C15.9588 4.87565 15.9657 5.02816 15.9716 5.17789L15.9781 5.35765C15.993 5.81092 15.9984 6.31992 15.9995 7.49062V8.50064C15.9979 10.2177 15.987 10.5113 15.9505 11.2933C15.9106 12.1465 15.7747 12.7277 15.5779 13.2364C15.3716 13.7637 15.0998 14.209 14.6545 14.6543C14.2116 15.0997 13.764 15.3739 13.2414 15.5778C12.7306 15.777 12.1494 15.9106 11.2987 15.9505C11.121 15.9588 10.9685 15.9657 10.8188 15.9716L10.6391 15.9781C10.2463 15.991 9.81167 15.9968 8.94078 15.9988L8.50641 15.9995C8.35034 15.9996 8.18251 15.9997 8.00148 15.9997L7.73964 15.9996C7.65554 15.9996 7.57457 15.9995 7.49654 15.9995L7.06218 15.9988C6.19129 15.9968 5.75665 15.991 5.36388 15.9781L5.18414 15.9716C5.03444 15.9657 4.88195 15.9588 4.70424 15.9505C3.85122 15.9106 3.27004 15.7747 2.76151 15.5778C2.23424 15.3715 1.78898 15.0997 1.34373 14.6543C0.898472 14.2114 0.624291 13.7637 0.42041 13.241C0.221217 12.7301 0.0876362 12.1488 0.0477982 11.298C0.0162592 10.6226 0.003817 10.3115 0 9.1332V6.86744C0.003817 5.68911 0.0162592 5.37801 0.0477982 4.7026C0.0876362 3.84946 0.223561 3.2682 0.42041 2.7596C0.626634 2.23224 0.898472 1.78692 1.34373 1.3416C1.78664 0.896282 2.23424 0.622058 2.75917 0.420492C3.27004 0.22127 3.85122 0.0876732 4.70189 0.0478287C4.91514 0.0378676 5.09209 0.0298109 5.27147 0.0233288L5.45309 0.0173597C5.79286 0.00733343 6.18433 0.00223098 6.86642 2.09808e-05L9.13182 0ZM8.71634 1.44042H7.28192C6.28847 1.44168 5.83018 1.44643 5.41632 1.45979L5.24025 1.46605C5.0934 1.47174 4.94328 1.47862 4.76752 1.48692C3.98715 1.52442 3.56298 1.65333 3.28176 1.76349C2.90915 1.9088 2.642 2.08224 2.36313 2.36115C2.08426 2.64006 1.91084 2.90726 1.76555 3.27992C1.65541 3.56117 1.52417 3.9854 1.48902 4.76588C1.48072 4.94167 1.47385 5.09182 1.46816 5.23869L1.4619 5.4148C1.45045 5.76959 1.44532 6.15702 1.4433 6.88618L1.44254 7.28067C1.44245 7.35164 1.44237 7.42534 1.44231 7.50196L1.44236 8.494C1.44342 9.64318 1.44875 10.1377 1.46293 10.5812L1.46908 10.7573C1.47462 10.9041 1.48121 11.0543 1.48902 11.2301C1.52652 12.0105 1.65541 12.4348 1.76555 12.716C1.91084 13.0887 2.08426 13.3559 2.36313 13.6348C2.642 13.9137 2.90915 14.0872 3.28176 14.2325C3.56298 14.3426 3.98715 14.4739 4.76752 14.509C4.94328 14.5173 5.0934 14.5242 5.24025 14.5299L5.41632 14.5362C5.83018 14.5495 6.28847 14.5543 7.28192 14.5555L8.49507 14.5557C8.57167 14.5556 8.64538 14.5555 8.71634 14.5554L9.11076 14.5545C9.83982 14.5522 10.2272 14.5465 10.5819 14.5351L10.758 14.529C10.9049 14.5234 11.055 14.5168 11.2307 14.509C12.0111 14.4715 12.4353 14.3426 12.7165 14.2325C13.0891 14.0872 13.3563 13.9137 13.6351 13.6348C13.914 13.3559 14.0874 13.0887 14.2327 12.716C14.3429 12.4348 14.4741 12.0105 14.5092 11.2301C14.5175 11.0543 14.5244 10.9041 14.5301 10.7573L14.5364 10.5812C14.5497 10.1672 14.5545 9.70888 14.5557 8.71528L14.5556 7.28067C14.5541 6.28707 14.5486 5.82872 14.5353 5.4148L14.5292 5.23869C14.5236 5.09182 14.517 4.94167 14.5092 4.76588C14.4717 3.9854 14.3429 3.56117 14.2327 3.27992C14.0874 2.90726 13.914 2.64006 13.6351 2.36115C13.3563 2.08224 13.0891 1.9088 12.7165 1.76349C12.4353 1.65333 12.0111 1.52208 11.2307 1.48692C11.055 1.47862 10.9049 1.47174 10.758 1.46605L10.5819 1.45979C10.1681 1.44643 9.70979 1.44168 8.71634 1.44042ZM7.99913 3.99888C10.2081 3.99888 11.9994 5.79021 11.9994 7.99915C11.9994 10.2081 10.2081 11.9994 7.99913 11.9994C5.7902 11.9994 3.99886 10.2081 3.99886 7.99915C3.99886 5.79021 5.7902 3.99888 7.99913 3.99888ZM7.99913 5.40228C6.56606 5.40228 5.40227 6.5638 5.40227 7.99915C5.40227 9.4345 6.56606 10.596 7.99913 10.596C9.4322 10.596 10.596 9.4345 10.596 7.99915C10.596 6.5638 9.4322 5.40228 7.99913 5.40228ZM12.3328 3.33217C12.8851 3.33217 13.3328 3.77991 13.3328 4.33223C13.3328 4.88456 12.8851 5.3323 12.3328 5.3323C11.7804 5.3323 11.3327 4.88456 11.3327 4.33223C11.3327 3.77991 11.7804 3.33217 12.3328 3.33217Z" fill="#212121"/>
</svg>