<svg width="16" height="13" viewBox="0 0 16 13" fill="none" xmlns="http://www.w3.org/2000/svg">
<path d="M5.02689 13C11.0653 13 14.3713 7.99861 14.3713 3.66015C14.3713 3.51937 14.3713 3.37604 14.3611 3.23526C15.0038 2.76942 15.5595 2.19608 16 1.53571C15.4008 1.80191 14.7657 1.97596 14.1152 2.05274C14.8015 1.64321 15.3137 0.998203 15.5595 0.238012C14.9142 0.619387 14.21 0.890701 13.475 1.03404C12.2305 -0.286699 10.1511 -0.350688 8.82971 0.890701C7.97696 1.69184 7.61587 2.88716 7.87964 4.02617C5.23943 3.89307 2.77848 2.64656 1.11139 0.596352C0.24071 2.09626 0.683735 4.01337 2.12804 4.97832C1.60563 4.96297 1.09348 4.82219 0.63765 4.56879C0.63765 4.58159 0.63765 4.59695 0.63765 4.60975C0.63765 6.17108 1.73879 7.51741 3.27272 7.82712C2.78873 7.95766 2.28169 7.97813 1.79001 7.88343C2.22023 9.21952 3.45199 10.1358 4.85788 10.164C3.69527 11.0778 2.25864 11.5743 0.781052 11.5718C0.519848 11.5718 0.258643 11.5564 0 11.5231C1.49552 12.4881 3.24455 13 5.02689 12.9974" fill="#212121"/>
</svg>