<svg width="16" height="11" viewBox="0 0 16 11" fill="none" xmlns="http://www.w3.org/2000/svg">
<path d="M15.6675 1.71816C15.4843 1.04124 14.9422 0.510042 14.253 0.32906C13.0048 -2.08616e-07 8.00241 0 8.00241 0C8.00241 0 2.99759 -2.08616e-07 1.75181 0.32906C1.06265 0.510042 0.520481 1.04124 0.337349 1.71816C-4.76837e-07 2.94274 0 5.5 0 5.5C0 5.5 -1.75834e-06 8.05726 0.334938 9.28184C0.518071 9.95876 1.06024 10.49 1.7494 10.6709C2.99759 11 8 11 8 11C8 11 13.0048 11 14.2506 10.6709C14.9398 10.49 15.4819 9.95876 15.6651 9.28184C16 8.05726 16 5.5 16 5.5C16 5.5 16 2.94274 15.6675 1.71816ZM6.36385 7.81987V3.18013L10.5446 5.5L6.36385 7.81987Z" fill="#212121"/>
</svg>